<svg xmlns="http://www.w3.org/2000/svg" viewBox="0 0 64 64" fill="none">
  <rect width="64" height="64" rx="16" fill="#3A0F18" />
  <rect x="12" y="12" width="18" height="40" rx="4" fill="#7C1430" />
  <rect x="24" y="12" width="28" height="40" rx="6" fill="#A4374F" />
  <path
    d="M20.2 39.5h-3.8l5.8-17h4.7l5.8 17h-3.9l-1.1-3.7h-7.4l-1.1 3.7Zm4.8-12.8-1.8 6h5.1l-1.8-6-.6-2.4-.9 2.4Z"
    fill="#fff"
  />
  <ellipse cx="41" cy="24.5" rx="7.5" ry="3.5" fill="#FFD7DF" />
  <path d="M33.5 24.5v13c0 1.9 3.4 3.5 7.5 3.5s7.5-1.6 7.5-3.5v-13" fill="#C45B74" />
  <path d="M33.5 31c0 1.9 3.4 3.5 7.5 3.5s7.5-1.6 7.5-3.5M33.5 37.5c0 1.9 3.4 3.5 7.5 3.5s7.5-1.6 7.5-3.5" stroke="#FFE8EE" stroke-width="1.8" />
</svg>
